HIERARCHY
ROOT RootJoint
{
    OFFSET   0.000000   0.000000   0.000000
    CHANNELS 6 Xposition Yposition Zposition Xrotation Yrotation Zrotation
    JOINT pelvis_lowerback
    {
        OFFSET   0.000000   0.093605   0.000000
        CHANNELS 3 Xrotation Yrotation Zrotation
        JOINT lowerback_torso
        {
            OFFSET   0.000000   0.100000   0.000000
            CHANNELS 3 Xrotation Yrotation Zrotation
            JOINT torso_head
            {
                OFFSET   0.000000   0.282350   0.000000
                CHANNELS 3 Xrotation Yrotation Zrotation
                End Site
                {
                    OFFSET   0.000000   0.192650   0.000000
                }
            }
            JOINT rTorso_Clavicle
            {
                OFFSET  -0.001000   0.157500   0.000000
                CHANNELS 3 Xrotation Yrotation Zrotation
                JOINT rShoulder
                {
                    OFFSET  -0.117647   0.000000   0.000000
                    CHANNELS 3 Xrotation Yrotation Zrotation
                    JOINT rElbow
                    {
                        OFFSET  -0.245000   0.000000   0.000000
                        CHANNELS 3 Xrotation Yrotation Zrotation
                        JOINT rWrist
                        {
                            OFFSET  -0.240000   0.000000   0.000000
                            CHANNELS 3 Xrotation Yrotation Zrotation
                            End Site
                            {
                                OFFSET  -0.116353  -0.002500   0.000000
                            }
                        }
                    }
                }
            }
            JOINT lTorso_Clavicle
            {
                OFFSET   0.001000   0.157500   0.000000
                CHANNELS 3 Xrotation Yrotation Zrotation
                JOINT lShoulder
                {
                    OFFSET   0.117647   0.000000   0.000000
                    CHANNELS 3 Xrotation Yrotation Zrotation
                    JOINT lElbow
                    {
                        OFFSET   0.245000   0.000000   0.000000
                        CHANNELS 3 Xrotation Yrotation Zrotation
                        JOINT lWrist
                        {
                            OFFSET   0.240000   0.000000   0.000000
                            CHANNELS 3 Xrotation Yrotation Zrotation
                            End Site
                            {
                                OFFSET   0.116353  -0.002500   0.000000
                            }
                        }
                    }
                }
            }
        }
    }
    JOINT rHip
    {
        OFFSET  -0.100000  -0.051395   0.000000
        CHANNELS 3 Xrotation Yrotation Zrotation
        JOINT rKnee
        {
            OFFSET   0.000000  -0.410000   0.000000
            CHANNELS 3 Xrotation Yrotation Zrotation
            JOINT rAnkle
            {
                OFFSET   0.000000  -0.390000   0.000000
                CHANNELS 3 Xrotation Yrotation Zrotation
                JOINT rToeJoint
                {
                    OFFSET   0.000000  -0.050000   0.130000
                    CHANNELS 3 Xrotation Yrotation Zrotation
                    End Site
                    {
                        OFFSET  -0.010000   0.002000   0.060000
                    }
                }
            }
        }
    }
    JOINT lHip
    {
        OFFSET   0.100000  -0.051395   0.000000
        CHANNELS 3 Xrotation Yrotation Zrotation
        JOINT lKnee
        {
            OFFSET   0.000000  -0.410000   0.000000
            CHANNELS 3 Xrotation Yrotation Zrotation
            JOINT lAnkle
            {
                OFFSET   0.000000  -0.390000   0.000000
                CHANNELS 3 Xrotation Yrotation Zrotation
                JOINT lToeJoint
                {
                    OFFSET   0.000000  -0.050000   0.130000
                    CHANNELS 3 Xrotation Yrotation Zrotation
                    End Site
                    {
                        OFFSET   0.010000   0.002000   0.060000
                    }
                }
            }
        }
    }
}
MOTION
Frames: 17
Frame Time:   0.008333
 -2.306612   0.916133   4.137778  22.395893  12.609291  -4.111202  11.764774   2.240181   1.702203  -8.618729  -3.467710  -3.104786  -2.853801   0.259379  -5.430661 -18.535111  29.417423 -25.004975 -57.102982  29.177356   4.107393   0.097952  48.594846  -0.043583   0.741646   2.024351 -15.381972 -15.726797 -28.081887  25.007873 -44.823800 -29.779048  -2.225988   0.080314 -41.829981   0.024966  -2.804443  -8.689585  17.243321 -33.386859  -7.281789  -7.853442  51.770278  -0.018408  -0.031391  -2.738184 -10.466470  10.670451 -13.524661  -0.031850   0.016998 -40.278500   1.316491   1.373476  48.436471   0.031818   0.034660  11.942801   0.701689  -3.461633 -45.596976  -0.013169  -0.004449
 -2.304523   0.931594   4.151912  22.353960  12.570599  -5.104894   9.763988   2.300856   2.808012  -8.224697  -3.584585  -3.025175  -1.933032   0.162392  -5.766442 -17.717826  28.914498 -25.424817 -57.877287  29.212151   4.274469   0.100479  47.099124  -0.039562   0.879362   2.262397 -15.430995 -15.067587 -27.300444  25.304155 -44.898791 -29.833920  -2.202254   0.077080 -40.576353   0.018879  -2.693483  -8.864067  17.149898 -31.642400  -7.646291  -6.413439  50.016529  -0.014297  -0.033140  -0.636430 -10.230023  11.317776 -11.623744  -0.030929   0.019235 -38.065895   0.757914   2.303241  44.932966   0.027475   0.026483  15.546930   0.688360  -4.038275 -44.270329  -0.009037   0.002488
 -2.302527   0.946703   4.165657  22.326827  12.690537  -6.147566   7.886508   2.285801   3.948106  -7.837068  -3.730447  -2.835315  -1.010732   0.050026  -6.153873 -16.950460  28.416125 -25.845492 -58.558905  29.187576   4.384526   0.101213  45.633134  -0.036905   0.939925   2.165523 -15.465786 -14.452510 -26.531240  25.588625 -44.942966 -29.785175  -2.174249   0.072390 -39.362771   0.011741  -2.630708  -8.841660  16.992561 -29.993702  -7.971147  -4.955038  48.554630  -0.011637  -0.034618   1.323592  -9.984553  11.915094  -9.912088  -0.028051   0.022299 -35.956278   0.285417   3.271638  41.423305   0.022161   0.014803  19.227210   0.659569  -4.619084 -41.993774  -0.004034   0.016035
 -2.300535   0.961361   4.178937  22.315007  12.907006  -7.166519   6.151296   2.219120   5.064548  -7.443892  -3.890814  -2.607264  -0.133054  -0.149682  -6.550010 -16.274084  27.920603 -26.234915 -59.198629  29.134417   4.467304   0.099971  44.245989  -0.035448   0.962137   1.931471 -15.513382 -13.968705 -25.731905  25.897045 -45.027341 -29.711406  -2.169992   0.068004 -38.214375   0.005072  -2.600944  -8.714480  16.715187 -28.446651  -8.240681  -3.548899  47.255797  -0.009729  -0.035369   3.150734  -9.735820  12.464303  -8.350026  -0.024324   0.024849 -33.979030  -0.119799   4.223007  37.967925   0.018025   0.003216  22.957110   0.589960  -5.203561 -38.612293   0.003976   0.035177
 -2.298457   0.975455   4.191805  22.308265  13.194787  -8.144796   4.529890   2.137497   6.148481  -7.089955  -4.028029  -2.346250   0.677379  -0.280231  -6.903467 -15.624166  27.466469 -26.591338 -59.773772  29.097706   4.529833   0.097254  42.935911  -0.035553   0.961690   1.619083 -15.580714 -13.479713 -25.024082  26.100804 -45.062469 -29.633966  -2.115185   0.062647 -37.138354  -0.001105  -2.578758  -8.565157  16.563828 -26.983168  -8.461842  -2.215551  46.072986  -0.008351  -0.035402   4.852995  -9.487337  12.968604  -6.922462  -0.020238   0.026496 -32.152188  -0.470396   5.133408  34.631406   0.014991  -0.006955  26.723844   0.461791  -5.790793 -34.183601   0.017776   0.056845
 -2.296270   0.988942   4.204207  22.288521  13.520834  -9.067753   3.036045   2.046334   7.191098  -6.741323  -4.147695  -2.077430   1.428035  -0.421072  -7.233407 -15.030743  27.035491 -26.915354 -60.315294  29.062514   4.590728   0.093057  41.713376  -0.036087   0.956272   1.306006 -15.654769 -13.039784 -24.343640  26.288067 -45.105159 -29.553128  -2.082254   0.057167 -36.131116  -0.006454  -2.562535  -8.403397  16.393003 -25.599083  -8.636677  -0.962020  44.988725  -0.007267  -0.034699   6.439144  -9.241993  13.431122  -5.615704  -0.016263   0.027114 -30.477759  -0.763419   5.956539  31.473297   0.011903  -0.014522  30.418544   0.251139  -6.368234 -29.389571   0.038009   0.071758
 -2.294009   1.001821   4.216154  22.253014  13.868750  -9.932418   1.665237   1.949063   8.182471  -6.397432  -4.250330  -1.805505   2.128228  -0.560697  -7.541547 -14.484588  26.628420 -27.210603 -60.821663  29.030797   4.647962   0.087662  40.571757  -0.036470   0.948537   1.001437 -15.738450 -12.644162 -23.695960  26.455501 -45.148027 -29.473640  -2.050806   0.051850 -35.190309  -0.010828  -2.547507  -8.243819  16.218412 -24.293121  -8.771727   0.215160  43.987794  -0.006356  -0.033444   7.917083  -9.001888  13.855238  -4.419042  -0.012669   0.026885 -28.947461  -1.011038   6.700526  28.520898   0.009049  -0.019799  33.865761   0.019908  -6.895730 -24.582352   0.058437   0.078061
 -2.291554   1.013947   4.226554  22.344827  13.949766  -9.642332   0.388970   2.000529   7.638006  -6.092294  -4.398198  -1.478094   2.735024  -0.572918  -7.419044 -14.147969  26.191153 -27.278868 -60.977490  29.005770   4.673016   0.077525  39.531849  -0.031336   0.932852   0.602294 -16.030666 -12.377849 -23.282178  26.315236 -45.174885 -29.603514  -2.007100   0.047321 -34.235803  -0.009935  -2.530643  -8.247870  16.257287 -23.801697  -8.496065   0.015002  43.191152  -0.005575  -0.028187   9.811368  -8.752911  14.170890  -3.213209  -0.008606   0.021837 -28.518075  -0.518755   6.345447  28.410427   0.007089  -0.016105  32.479509   0.293814  -7.607592 -20.041726   0.086526   0.084387
 -2.289235   1.025613   4.236240  22.322573  13.877179  -9.081990  -0.685364   2.093849   6.928750  -5.723145  -4.518746  -1.327840   3.292329  -0.574672  -7.300707 -13.800357  25.789621 -27.325307 -61.109961  28.986101   4.722050   0.066115  38.570794  -0.024838   0.927820   0.246736 -16.275394 -12.109702 -22.883596  26.086692 -45.196611 -29.693506  -2.006615   0.041455 -33.346001  -0.007891  -2.515334  -8.278649  16.383742 -23.439540  -8.170156  -0.465731  42.308786  -0.004569  -0.022529  11.583046  -8.520210  14.452112  -2.053354  -0.006752   0.016428 -28.176749   0.000589   5.850960  28.760302   0.005932  -0.012571  31.173433   0.563139  -8.269598 -16.149452   0.098363   0.077773
 -2.287209   1.036808   4.245363  22.225373  13.697329  -8.446476  -1.603755   2.203999   6.199967  -5.297782  -4.621964  -1.267714   3.812208  -0.575119  -7.195772 -13.448349  25.425449 -27.370009 -61.225102  28.972528   4.786954   0.054802  37.677160  -0.018038   0.928960  -0.070040 -16.454125 -11.836530 -22.495677  25.811535 -45.206975 -29.741859  -2.038273   0.034982 -32.506013  -0.005572  -2.513811  -8.270651  16.488459 -23.181688  -7.853708  -1.005576  41.410341  -0.003305  -0.017065  13.232065  -8.299054  14.705773  -0.992864  -0.006425   0.011730 -27.850562   0.483057   5.402232  29.184015   0.004658  -0.010089  29.964210   0.828830  -8.881422 -12.578215   0.100065   0.066876
 -2.285495   1.047502   4.253998  22.075912  13.458350  -7.791349  -2.385362   2.316415   5.476946  -4.831648  -4.719940  -1.259868   4.298710  -0.575598  -7.100194 -13.101844  25.091987 -27.413277 -61.326552  28.963345   4.859916   0.044310  36.845144  -0.011609   0.934526  -0.357431 -16.579090 -11.558563 -22.126457  25.512180 -45.208075 -29.762047  -2.094433   0.028405 -31.713764  -0.003348  -2.526332  -8.219188  16.551746 -23.011965  -7.559416  -1.549177  40.530755  -0.001986  -0.012204  14.767429  -8.087810  14.936002  -0.026626  -0.006837   0.008061 -27.541958   0.921849   5.027023  29.602381   0.003314  -0.008298  28.840173   1.090180  -9.446570  -9.301351   0.095447   0.055571
 -2.284065   1.057661   4.262208  21.887214  13.193524  -7.137009  -3.046345   2.424359   4.767389  -4.335798  -4.818531  -1.287892   4.754716  -0.576364  -7.012845 -12.766522  24.784730 -27.454516 -61.416986  28.957329   4.936332   0.034974  36.070049  -0.005927   0.943360  -0.621409 -16.664327 -11.276203 -21.781112  25.202014 -45.201868 -29.764491  -2.170250   0.022063 -30.968560  -0.001419  -2.549173  -8.135993  16.573926 -22.912336  -7.287056  -2.079427  39.682827  -0.000769  -0.008123  16.197461  -7.885888  15.145581   0.853971  -0.007479   0.005405 -27.256575   1.319557   4.721293  29.997144   0.002027  -0.006917  27.793951   1.345706  -9.968710  -6.297262   0.087387   0.045549
 -2.282878   1.067259   4.270050  21.668315  12.923858  -6.493084  -3.601903   2.525074   4.075248  -3.819110  -4.919645  -1.342430   5.182441  -0.577399  -6.933169 -12.444910  24.500983 -27.493913 -61.498296  28.954037   5.013764   0.026902  35.347822  -0.001158   0.954741  -0.865463 -16.720110 -10.990394 -21.461815  24.889231 -45.189793 -29.755944  -2.262094   0.016186 -30.269124   0.000128  -2.578787  -8.032229  16.557963 -22.867214  -7.034009  -2.590042  38.871296   0.000265  -0.004845  17.529685  -7.693031  15.336669   1.656903  -0.008069   0.003604 -26.997455   1.680284   4.475496  30.364009   0.000879  -0.005789  26.819633   1.594079 -10.451270  -3.544385   0.077836   0.037332
 -2.282245   1.076290   4.276624  21.377679  12.583576  -5.981161  -3.609446   2.659649   3.512370  -3.627438  -4.909695  -1.412491   5.440012  -0.547262  -6.677309 -12.443523  24.323974 -27.158722 -61.224285  29.046226   5.051507   0.019795  34.845779   0.001732   0.944704  -1.014119 -16.899763 -10.899806 -21.315038  24.402738 -45.229388 -29.652529  -2.453991   0.012649 -30.162917   0.000523  -2.682636  -7.725498  16.598241 -23.169657  -6.543643  -2.841448  38.918368   0.000166  -0.003872  17.639428  -7.342898  15.045437   1.965725  -0.005964   0.004164 -27.199416   2.137226   4.448866  31.734562  -0.001608  -0.003895  25.764534   1.904978 -10.684975  -2.555340   0.063526   0.032221
 -2.281767   1.084772   4.282656  21.010058  12.266572  -5.496591  -3.487478   2.788211   2.986106  -3.349135  -4.897315  -1.469809   5.671228  -0.515410  -6.430475 -12.410121  24.162593 -26.790100 -60.958355  29.115502   5.118253   0.013415  34.386957   0.003923   0.956458  -1.078548 -17.075763 -10.794210 -21.184765  23.899072 -45.265267 -29.556359  -2.662692   0.009763 -30.086011   0.000667  -2.749013  -7.578963  16.686307 -23.504783  -6.076662  -3.028376  39.076640  -0.000049  -0.003048  17.737154  -7.013796  14.772306   2.176164  -0.004501   0.004224 -27.443127   2.559572   4.447057  33.148644  -0.003390  -0.002250  24.789948   2.200981 -10.896335  -1.650205   0.051926   0.027957
 -2.281371   1.092694   4.288274  20.598479  11.981030  -5.029433  -3.283975   2.909689   2.488458  -2.997663  -4.888483  -1.522214   5.888155  -0.484801  -6.201293 -12.347576  24.016911 -26.420576 -60.700220  29.163647   5.206112   0.007856  33.954530   0.005595   0.965919  -1.144893 -17.197382 -10.668314 -21.069231  23.405466 -45.291524 -29.460009  -2.883440   0.007374 -30.014507   0.000707  -2.805777  -7.465013  16.736892 -23.852379  -5.644605  -3.179619  39.235125  -0.000248  -0.002372  17.830542  -6.706447  14.517495   2.369314  -0.003417   0.004217 -27.702648   2.950344   4.442448  34.479276  -0.004373  -0.000928  23.882520   2.480606 -11.088372  -0.816287   0.042602   0.024208
 -2.281022   1.100032   4.293554  20.160116  11.728629  -4.579690  -3.016337   3.023232   2.018528  -2.592960  -4.883123  -1.571336   6.092088  -0.455583  -5.988590 -12.263871  23.886714 -26.060532 -60.451608  29.197542   5.308003   0.003165  33.546641   0.006804   0.969032  -1.227455 -17.264869 -10.526950 -20.968215  22.928667 -45.309448 -29.364869  -3.110852   0.005407 -29.946138   0.000681  -2.861807  -7.350796  16.738908 -24.208908  -5.244174  -3.303569  39.374414  -0.000395  -0.001822  17.918577  -6.419629  14.279683   2.545290  -0.002607   0.004154 -27.977743   3.313355   4.430406  35.711953  -0.004733   0.000129  23.035738   2.744333 -11.263153  -0.053976   0.035122   0.020883
